# xmcd
#
# Track frame offsets:
#	150
#	13405
#	25095
#	44727
#	58657
#	69212
#	79305
#	93535
#	104537
#	117842
#	132837
#	145267
#	162895
#	175102
#	190352
#	200867
#	212937
#	227912
#	239355
#	251002
#
# Disc length: 3484 seconds
#
# Revision: 4
# Processed by: cddbd v1.5.2PL0 Copyright (c) Steve Scherf et al.
# Submitted via: EasyCDDAExtractor 16.0.6.1
#
DISCID=2d0d9a14
DTITLE=Kenny Rogers - C-025 20 Golden Greats
DYEAR=1999
DGENRE=Country
TTITLE0=Ruby, don't take your love to town
TTITLE1=Me and Bobby McGee
TTITLE2=Lay it down
TTITLE3=loser
TTITLE4=Ticket to nowhere
TTITLE5=New design
TTITLE6=Sunshine
TTITLE7=Always leaving, always gone
TTITLE8=Shine on ruby mountain
TTITLE9=condition
TTITLE10=Reuben James
TTITLE11=Something's burning
TTITLE12=What am i gonna do
TTITLE13=For the good times
TTITLE14=Good time liberator
TTITLE15=Elvira
TTITLE16=All god's lonely children
TTITLE17=If wishes were horses
TTITLE18=Girl, get a hold of yourself
TTITLE19=Once again she's all alone
EXTD=
EXTT0=
EXTT1=
EXTT2=
EXTT3=
EXTT4=
EXTT5=
EXTT6=
EXTT7=
EXTT8=
EXTT9=
EXTT10=
EXTT11=
EXTT12=
EXTT13=
EXTT14=
EXTT15=
EXTT16=
EXTT17=
EXTT18=
EXTT19=
PLAYORDER=
